# xmcd
#
# Track frame offsets:
#	150
#	14050
#	28018
#	39900
#	51728
#	68968
#	82310
#	96500
#	111423
#	126470
#
# Disc length: 1826 seconds
#
# Revision: 0
# Processed by: cddbd v1.5.1PL0 Copyright (c) Steve Scherf et al.
# Submitted via: dBpowerAMP V4.0
#
DISCID=9c07200a
DTITLE=The Bobby Lalonde Band - Fiddle Man
DYEAR=1997
DGENRE=Fiddle
TTITLE0=Zydeco
TTITLE1=Fiddle Man
TTITLE2=Somedays
TTITLE3=Road to the Blues
TTITLE4=Be My Life
TTITLE5=Cutting the Strings
TTITLE6=Somebody Painted My Hometown
TTITLE7=Fiddle Medley (live)
TTITLE8=I Can't Get Close Enough
TTITLE9=Gospel Medley
EXTD=
EXTT0=
EXTT1=
EXTT2=
EXTT3=
EXTT4=
EXTT5=
EXTT6=
EXTT7=
EXTT8=
EXTT9=
PLAYORDER=
